<svg width="96" height="96" viewBox="0 0 96 96" fill="none" xmlns="http://www.w3.org/2000/svg">
  <defs>
    <linearGradient id="g" x1="16" y1="16" x2="84" y2="84" gradientUnits="userSpaceOnUse">
      <stop stop-color="#06B6D4"/>
      <stop offset="0.55" stop-color="#22C55E"/>
      <stop offset="1" stop-color="#F59E0B"/>
    </linearGradient>
    <filter id="s" x="0" y="0" width="96" height="96" filterUnits="userSpaceOnUse" color-interpolation-filters="sRGB">
      <feDropShadow dx="0" dy="8" stdDeviation="8" flood-color="#000000" flood-opacity="0.20"/>
    </filter>
  </defs>

  <!-- Soft badge so the mark works on light/dark backgrounds -->
  <g filter="url(#s)">
    <rect x="12" y="12" width="72" height="72" rx="20" fill="#0B1320" fill-opacity="0.06"/>
  </g>

  <!-- Page with folded corner -->
  <path
    d="M30 24H55.5L68 36.5V68C68 71.3137 65.3137 74 62 74H30C26.6863 74 24 71.3137 24 68V30C24 26.6863 26.6863 24 30 24Z"
    stroke="url(#g)"
    stroke-width="4"
    stroke-linejoin="round"
  />
  <path
    d="M55 24V37C55 39.2091 56.7909 41 59 41H68"
    stroke="url(#g)"
    stroke-width="4"
    stroke-linecap="round"
    stroke-linejoin="round"
  />

  <!-- Magnifier -->
  <path
    d="M46 56.5C46 62.299 41.299 67 35.5 67C29.701 67 25 62.299 25 56.5C25 50.701 29.701 46 35.5 46C41.299 46 46 50.701 46 56.5Z"
    stroke="url(#g)"
    stroke-width="4"
  />
  <path
    d="M43.5 64.5L52.5 73.5"
    stroke="url(#g)"
    stroke-width="4"
    stroke-linecap="round"
  />
</svg>

